<svg xmlns="http://www.w3.org/2000/svg" fill="none" viewBox="0 0 40 40" height="40" width="40">
<mask height="37" width="40" y="2" x="0" maskUnits="userSpaceOnUse" style="mask-type:luminance" id="mask0_385_309">
<path fill="white" d="M40 2H0V38.0101H40V2Z"></path>
</mask>
<g mask="url(#mask0_385_309)">
<path fill="#4A4944" d="M11.6345 22.8888C12.7745 22.8888 13.8474 22.8217 14.8868 22.6541V11.2542C13.8474 11.1201 12.7745 11.0195 11.6345 11.0195C5.23051 11.0195 0 13.4336 0 16.3506V17.5241C0 20.4747 5.23051 22.8888 11.6345 22.8888Z"></path>
<path fill="#4A4944" d="M11.6402 28.8572C12.7802 28.8572 13.8531 28.7901 14.8925 28.6225V25.2696C13.8531 25.4037 12.7802 25.5043 11.6402 25.5043C6.0409 25.5043 1.34685 23.6937 0.273924 21.2461C0.10628 21.6149 0.0392228 21.9502 0.0392228 22.3525V23.5261C0.00569388 26.4431 5.2362 28.8572 11.6402 28.8572Z"></path>
<path fill="#4A4944" d="M14.8924 31.5065V31.2383C13.853 31.3724 12.7801 31.473 11.6401 31.473C6.04074 31.473 1.34669 29.6625 0.273764 27.2148C0.106119 27.5837 0.0390625 27.919 0.0390625 28.3213V29.4948C0.0390625 32.4454 5.23604 34.8259 11.6736 34.8259C12.9477 34.8259 14.1883 34.7253 15.3618 34.5577C15.06 33.9877 14.9259 33.3506 14.9259 32.7136V31.5065H14.8924Z"></path>
<path fill="#4A4944" d="M28.4002 2C21.9961 2 16.7656 4.38055 16.7656 7.3311V8.50461C16.7656 11.4552 21.9626 13.8357 28.4002 13.8357C34.8377 13.8357 40.0347 11.4216 40.0347 8.50461V7.3311C40.0347 4.38055 34.8042 2 28.4002 2Z"></path>
<path fill="#4A4944" d="M28.3979 16.4515C22.7986 16.4515 18.1045 14.641 17.0316 12.1934C16.8639 12.5622 16.7969 12.8975 16.7969 13.2998V14.4733C16.7969 17.4239 21.9939 19.8044 28.4314 19.8044C34.869 19.8044 40.0659 17.3903 40.0659 14.4733V13.2998C40.0659 12.931 39.9654 12.5622 39.8312 12.1934C38.6913 14.641 33.9972 16.4515 28.3979 16.4515Z"></path>
<path fill="#4A4944" d="M28.3979 22.4183C22.7986 22.4183 18.1045 20.6078 17.0316 18.1602C16.8639 18.529 16.7969 18.8643 16.7969 19.2666V20.4401C16.7969 23.3907 21.9939 25.7712 28.4314 25.7712C34.869 25.7712 40.0659 23.3571 40.0659 20.4401V19.2666C40.0659 18.8978 39.9654 18.529 39.8312 18.1602C38.6913 20.6078 33.9972 22.4183 28.3979 22.4183Z"></path>
<path fill="#4A4944" d="M28.3979 28.723C22.7986 28.723 18.1045 26.9125 17.0316 24.4648C16.8639 24.8337 16.7969 25.1689 16.7969 25.5713V26.7448C16.7969 29.6954 21.9939 32.0759 28.4314 32.0759C34.869 32.0759 40.0659 29.6618 40.0659 26.7448V25.5713C40.0659 25.2025 39.9654 24.8337 39.8312 24.4648C38.6913 26.8789 33.9972 28.723 28.3979 28.723Z"></path>
<path fill="#4A4944" d="M28.3979 34.6582C22.7986 34.6582 18.1045 32.8477 17.0316 30.4336C16.8639 30.7689 16.7969 31.1377 16.7969 31.5065V32.68C16.7969 35.6306 21.9939 38.0111 28.4314 38.0111C34.869 38.0111 40.0659 35.6306 40.0659 32.68V31.5065C40.0659 31.1377 39.9654 30.7689 39.8312 30.4336C38.6913 32.8477 33.9972 34.6582 28.3979 34.6582Z"></path>
</g>
</svg>
