<svg xmlns="http://www.w3.org/2000/svg" fill="none" viewBox="0 0 40 40" height="40" width="40">
<path fill="#45443F" d="M33.3662 19.4503L20.8762 6.07031C20.7162 5.91031 20.5163 5.82031 20.2863 5.82031H7.20625C6.76625 5.82031 6.40625 6.18031 6.40625 6.62031V19.7003C6.40625 19.9103 6.49625 20.1203 6.64625 20.2703L20.3263 33.9503C20.4763 34.1003 20.6862 34.1903 20.8962 34.1903H20.9263C21.1463 34.1903 21.3563 34.0903 21.4963 33.9203L33.3963 20.5403C33.6663 20.2303 33.6663 19.7603 33.3763 19.4603L33.3662 19.4503ZM20.8463 32.2103L8.00625 19.3703V7.42031H19.9363L31.6863 20.0103L20.8463 32.2103Z"></path>
<path fill="#45443F" d="M17.9192 26.4498C17.7292 26.4498 17.5292 26.3798 17.3792 26.2398C17.0492 25.9398 17.0292 25.4298 17.3292 25.0998L23.2792 18.5598C23.5792 18.2298 24.0892 18.2098 24.4192 18.5098C24.7492 18.8098 24.7692 19.3198 24.4692 19.6498L18.5192 26.1898C18.3592 26.3598 18.1392 26.4498 17.9292 26.4498H17.9192Z"></path>
<path fill="#45443F" d="M20.5994 28.8302C20.3894 28.8302 20.1894 28.7502 20.0294 28.5902C19.7194 28.2802 19.7194 27.7702 20.0294 27.4502L23.8994 23.5802C24.2094 23.2702 24.7194 23.2702 25.0394 23.5802C25.3594 23.8902 25.3494 24.4002 25.0394 24.7202L21.1694 28.5902C21.0094 28.7502 20.8094 28.8302 20.5994 28.8302Z"></path>
<path fill="#45443F" d="M15.1566 11.37C15.1566 12.8 13.9966 13.96 12.5666 13.96C11.1366 13.96 9.97656 12.8 9.97656 11.37C9.97656 9.94004 11.1366 8.79004 12.5666 8.79004C13.9966 8.79004 15.1566 9.95004 15.1566 11.37Z"></path>
</svg>
