<svg xmlns="http://www.w3.org/2000/svg" fill="none" viewBox="0 0 40 40" height="40" width="40">
<path fill="#45443F" d="M35.288 15.336C35.1763 15.4431 35.0445 15.5271 34.9003 15.5832C34.7561 15.6393 34.6023 15.6665 34.4475 15.6632C34.2928 15.6598 34.1403 15.626 33.9986 15.5637C33.857 15.5014 33.729 15.4118 33.622 15.3C30.166 11.69 25.2 9.61799 20 9.61799C14.8 9.61799 10.108 11.588 6.36 15.32C6.25091 15.4294 6.12122 15.5162 5.97842 15.5752C5.83561 15.6343 5.68253 15.6644 5.528 15.664C5.37333 15.664 5.22017 15.6334 5.07734 15.5741C4.93451 15.5147 4.80483 15.4277 4.69573 15.318C4.58664 15.2084 4.50029 15.0782 4.44164 14.9351C4.383 14.792 4.35321 14.6387 4.354 14.484C4.35349 14.3293 4.38382 14.176 4.44323 14.0332C4.50264 13.8903 4.58993 13.7607 4.7 13.652C6.70367 11.6316 9.08679 10.027 11.7124 8.93045C14.3381 7.83385 17.1546 7.26684 20 7.26199C25.84 7.26199 31.426 9.59799 35.324 13.662C35.4318 13.7741 35.5164 13.9065 35.5729 14.0514C35.6295 14.1963 35.6569 14.3509 35.6535 14.5065C35.6502 14.662 35.6162 14.8153 35.5534 14.9577C35.4907 15.1 35.4005 15.2286 35.288 15.336Z"></path>
<path fill="#45443F" d="M31.9 18.218C31.8998 18.451 31.8307 18.6788 31.7013 18.8726C31.5719 19.0664 31.388 19.2175 31.1728 19.3069C30.9576 19.3963 30.7207 19.42 30.4921 19.375C30.2634 19.33 30.0532 19.2183 29.888 19.054C27.2461 16.4599 23.7023 14.9898 20 14.952C18.1626 14.9509 16.3431 15.3128 14.6459 16.0167C12.9487 16.7206 11.4073 17.7528 10.11 19.054C10.0014 19.1643 9.87186 19.2517 9.72897 19.3111C9.58608 19.3705 9.43275 19.4007 9.278 19.4C9.04524 19.3987 8.81807 19.3285 8.62508 19.1984C8.43209 19.0683 8.28189 18.884 8.19338 18.6687C8.10488 18.4534 8.08202 18.2168 8.12768 17.9885C8.17334 17.7603 8.28548 17.5507 8.45 17.386C9.97027 15.8661 11.7736 14.6587 13.758 13.832C15.7375 13.0151 17.8586 12.5965 20 12.6C24.326 12.6455 28.466 14.366 31.55 17.4C31.7702 17.6157 31.896 17.9098 31.9 18.218Z"></path>
<path fill="#45443F" d="M28.148 21.952C28.148 22.2648 28.024 22.5648 27.8032 22.7864C27.5824 23.0079 27.2828 23.1329 26.97 23.134C26.8158 23.1343 26.6631 23.104 26.5206 23.045C26.3781 22.986 26.2488 22.8993 26.14 22.79C24.4998 21.1862 22.297 20.2882 20.003 20.2882C17.709 20.2882 15.5062 21.1862 13.866 22.79C13.757 22.8996 13.6274 22.9865 13.4845 23.0455C13.3417 23.1046 13.1886 23.1347 13.034 23.134C12.8789 23.1342 12.7252 23.1035 12.582 23.0438C12.4389 22.984 12.309 22.8964 12.2 22.786C11.9796 22.5648 11.8558 22.2653 11.8558 21.953C11.8558 21.6407 11.9796 21.3412 12.2 21.12C13.224 20.1082 14.4371 19.3077 15.77 18.764C17.1129 18.2154 18.5494 17.9322 20 17.93C22.9193 17.931 25.7211 19.0805 27.8 21.13C27.9095 21.2372 27.9966 21.365 28.0564 21.5061C28.1161 21.6472 28.1473 21.7988 28.148 21.952Z"></path>
<path fill="#45443F" d="M20 25.046C19.2399 25.0488 18.4977 25.2767 17.8671 25.701C17.2365 26.1253 16.7457 26.7269 16.4568 27.4299C16.1678 28.1329 16.0936 28.9057 16.2436 29.6509C16.3936 30.396 16.761 31.08 17.2994 31.6164C17.8378 32.1529 18.5232 32.5178 19.2688 32.6651C20.0145 32.8124 20.7871 32.7354 21.489 32.4439C22.191 32.1524 22.7908 31.6594 23.2128 31.0273C23.6348 30.3951 23.86 29.6521 23.86 28.892C23.8574 27.8704 23.4494 26.8915 22.7257 26.1705C22.0019 25.4494 21.0216 25.0449 20 25.046ZM20 30.6C19.6643 30.5976 19.3368 30.4959 19.0588 30.3077C18.7808 30.1195 18.5648 29.8531 18.438 29.5423C18.3112 29.2315 18.2792 28.89 18.3461 28.5611C18.4131 28.2321 18.5759 27.9303 18.8142 27.6937C19.0524 27.4572 19.3553 27.2965 19.6847 27.2318C20.0142 27.1672 20.3554 27.2016 20.6653 27.3306C20.9752 27.4596 21.24 27.6775 21.4263 27.9568C21.6126 28.2361 21.712 28.5643 21.712 28.9C21.7099 29.3523 21.5285 29.7853 21.2075 30.104C20.8866 30.4227 20.4523 30.6011 20 30.6Z"></path>
</svg>
